<svg width="899" height="506" viewBox="0 0 899 506" fill="none" xmlns="http://www.w3.org/2000/svg">
<g clip-path="url(#clip0_331_4)">
<rect width="899" height="506" fill="#171717"/>
<g filter="url(#filter0_f_331_4)">
<g opacity="0.5">
<path d="M312.784 -218.387C167.727 -168.806 90.0513 -10.4551 139.632 134.602C159.948 194.038 198.601 243.508 251.411 277.649C261.531 284.196 272.149 290.419 282.414 296.439C313.063 314.402 342.009 331.374 358.632 355.907C358.991 356.435 362.321 361.641 368.726 381.05L369.646 383.856C374.789 399.632 381.839 421.227 403.243 431.915C417.901 439.234 434.991 439.39 455.499 432.38L597.772 383.751C619.916 376.182 633.982 365.322 640.778 350.551C649.972 330.572 642.355 311.428 637.311 298.759C636.419 296.519 635.513 294.26 634.702 291.981C627.855 272.699 627.438 266.746 627.419 266.496C625.667 236.884 640.193 200.059 653.015 167.572C657.291 156.732 661.332 146.493 664.895 136.37C685.77 77.0355 686.058 14.2422 665.735 -45.2184C616.157 -190.276 457.823 -267.962 312.784 -218.387ZM612.069 117.776C608.85 126.909 605 136.677 600.922 147.015C585.976 184.899 569.033 227.838 571.519 269.797C571.87 275.777 573.336 286.517 581.934 310.715C582.978 313.653 584.13 316.573 585.283 319.462C586.189 321.744 587.387 324.752 588.201 327.18C586.44 328.122 583.721 329.367 579.658 330.755L437.385 379.385C432.877 380.926 430.079 381.35 428.603 381.452C426.723 378.239 424.371 371.034 422.889 366.49L421.912 363.494C413.812 338.964 408.385 329.495 405.005 324.499C381.272 289.463 343.798 267.499 310.74 248.122C300.545 242.145 290.91 236.498 281.821 230.617C239.68 203.368 208.838 163.9 192.63 116.483C153.037 0.64587 215.066 -125.807 330.903 -165.401C446.718 -204.987 573.157 -142.953 612.751 -27.1162C628.96 20.3282 628.729 70.4325 612.069 117.776Z" fill="#292929"/>
<path d="M600.21 411.316L468.829 456.223C440.472 465.915 425.425 497.281 435.289 526.14L449.004 566.267C458.868 595.125 489.966 610.718 518.324 601.026L649.704 556.119C678.062 546.427 693.109 515.06 683.245 486.202L669.529 446.075C659.665 417.217 628.567 401.623 600.21 411.316ZM629.426 502.586L501.592 546.28L489.11 509.763L616.944 466.069L629.426 502.586Z" fill="#292929"/>
</g>
</g>
<path d="M448.95 191C426.37 191 408 209.37 408 231.95C408 241.202 411.031 249.938 416.765 257.213C417.863 258.607 419.047 259.98 420.191 261.309C423.607 265.272 426.833 269.017 427.981 273.228C428.006 273.319 428.222 274.203 428.19 277.213L428.184 277.648C428.15 280.092 428.103 283.438 430.578 285.947C432.272 287.666 434.646 288.502 437.839 288.502H459.985C463.432 288.502 465.91 287.658 467.561 285.923C469.794 283.576 469.645 280.545 469.545 278.539C469.527 278.184 469.509 277.826 469.504 277.47C469.469 274.457 469.694 273.607 469.703 273.571C470.87 269.36 474.649 264.92 477.984 261.003C479.096 259.696 480.147 258.461 481.126 257.22C486.862 249.944 489.894 241.206 489.894 231.95C489.894 209.371 471.527 191 448.95 191ZM474.649 252.112C473.765 253.231 472.763 254.409 471.702 255.656C467.814 260.224 463.407 265.402 461.755 271.368C461.519 272.218 461.211 273.785 461.257 277.567C461.263 278.027 461.284 278.489 461.307 278.946C461.325 279.307 461.348 279.784 461.346 280.161C461.056 280.208 460.618 280.252 459.985 280.252H437.839C437.137 280.252 436.727 280.178 436.516 280.122C436.407 279.585 436.423 278.468 436.433 277.764L436.439 277.3C436.479 273.495 436.174 271.917 435.94 271.06C434.302 265.046 430.125 260.199 426.441 255.924C425.304 254.605 424.23 253.359 423.244 252.106C418.668 246.301 416.25 239.33 416.25 231.949C416.25 213.918 430.92 199.248 448.951 199.248C466.979 199.248 481.647 213.918 481.647 231.949C481.645 239.334 479.226 246.307 474.649 252.112Z" fill="url(#paint0_linear_331_4)"/>
<path d="M459.012 292.46L438.561 292.46C434.147 292.46 430.555 296.115 430.555 300.607L430.555 306.853C430.555 311.345 434.147 315 438.561 315L459.012 315C463.426 315 467.017 311.345 467.017 306.853L467.017 300.607C467.017 296.115 463.426 292.46 459.012 292.46ZM458.736 306.573L438.837 306.573L438.837 300.888L458.736 300.888L458.736 306.573Z" fill="url(#paint1_linear_331_4)"/>
</g>
<defs>
<filter id="filter0_f_331_4" x="120.668" y="-237.347" width="569.603" height="845.25" filterUnits="userSpaceOnUse" color-interpolation-filters="sRGB">
<feFlood flood-opacity="0" result="BackgroundImageFix"/>
<feBlend mode="normal" in="SourceGraphic" in2="BackgroundImageFix" result="shape"/>
<feGaussianBlur stdDeviation="2" result="effect1_foregroundBlur_331_4"/>
</filter>
<linearGradient id="paint0_linear_331_4" x1="448.947" y1="191" x2="448.947" y2="288.502" gradientUnits="userSpaceOnUse">
<stop stop-color="#FFE57C"/>
<stop offset="1" stop-color="#FFCC02"/>
</linearGradient>
<linearGradient id="paint1_linear_331_4" x1="448.786" y1="292.46" x2="448.786" y2="315" gradientUnits="userSpaceOnUse">
<stop stop-color="#FFE57C"/>
<stop offset="1" stop-color="#FFDB4D"/>
</linearGradient>
<clipPath id="clip0_331_4">
<rect width="899" height="506" fill="white"/>
</clipPath>
</defs>
</svg>
