<svg width="220" height="210" viewBox="0 0 220 210" fill="none" xmlns="http://www.w3.org/2000/svg">
<path d="M95.0033 10.0026L70.0033 70.0026L110.003 200.003M110.003 200.003L150.003 70.0026L125.003 10.0026M110.003 200.003C113.175 200.003 116.297 199.248 119.12 197.801C121.943 196.355 124.381 194.257 126.233 191.683L206.133 81.8226C208.669 78.363 210.025 74.1801 210.001 69.8911C209.978 65.6021 208.576 61.4342 206.003 58.0026L176.003 18.0026C174.14 15.5186 171.725 13.5026 168.948 12.114C166.17 10.7255 163.108 10.0026 160.003 10.0026H60.0033C56.8925 10.0029 53.8247 10.729 51.0437 12.123C48.2626 13.5169 45.8451 15.5404 43.9833 18.0326L14.0033 58.0026C11.4289 61.4331 10.0256 65.6004 10.0003 69.8894C9.97514 74.1785 11.3294 78.362 13.8633 81.8226L93.7633 191.683C95.6158 194.257 98.0541 196.355 100.877 197.801C103.7 199.248 106.831 200.003 110.003 200.003ZM10.0033 70.0026H210.003" stroke="white" stroke-width="20" stroke-linecap="round" stroke-linejoin="round"/>
</svg>
