<svg width="359" height="412" viewBox="0 0 359 412" fill="none" xmlns="http://www.w3.org/2000/svg">
<path d="M126.266 76.813L179.947 65.2509L222.066 76.813L257.578 103.24L271.618 145.359L262.533 180.871L238.583 231.249L217.111 276.671L199.768 284.104H155.172C151.042 284.104 140.967 280.635 133.699 266.761C126.432 252.886 130.671 248.317 133.699 247.766L116.356 222.164C109.749 213.906 96.0399 196.067 94.0579 190.782C92.0758 185.496 89.378 166.556 88.2769 157.747L105.62 103.24L126.266 76.813Z" fill="white"/>
<rect x="150.217" y="320.442" width="59.4619" height="24.7758" fill="white"/>
<path d="M179.529 51.1406C123.273 51.1406 77.5039 96.9092 77.5039 153.166C77.5039 176.217 85.0546 197.984 99.3408 216.108C102.078 219.582 105.027 223.003 107.877 226.312C116.388 236.188 124.425 245.517 127.286 256.009C127.347 256.235 127.886 258.439 127.806 265.939L127.793 267.022C127.706 273.111 127.591 281.447 133.755 287.699C137.977 291.98 143.893 294.063 151.846 294.063H207.023C215.611 294.063 221.785 291.961 225.898 287.638C231.462 281.792 231.089 274.24 230.841 269.242C230.798 268.358 230.751 267.466 230.74 266.578C230.651 259.07 231.213 256.953 231.236 256.864C234.142 246.373 243.557 235.31 251.866 225.55C254.638 222.294 257.256 219.218 259.695 216.125C273.986 197.999 281.54 176.228 281.54 153.167C281.541 96.9105 235.779 51.1406 179.529 51.1406ZM243.557 203.398C241.356 206.188 238.859 209.123 236.216 212.229C226.53 223.61 215.55 236.51 211.432 251.376C210.845 253.494 210.079 257.397 210.192 266.821C210.206 267.965 210.26 269.116 210.317 270.256C210.361 271.156 210.42 272.343 210.414 273.282C209.691 273.4 208.599 273.51 207.023 273.51H151.846C150.098 273.51 149.076 273.325 148.551 273.185C148.28 271.847 148.318 269.065 148.343 267.311L148.359 266.155C148.458 256.675 147.698 252.743 147.117 250.607C143.034 235.624 132.628 223.549 123.448 212.896C120.617 209.611 117.941 206.506 115.483 203.385C104.084 188.92 98.0583 171.554 98.0583 153.165C98.0583 108.24 134.607 71.6909 179.532 71.6909C224.448 71.6909 260.992 108.24 260.992 153.165C260.989 171.564 254.962 188.936 243.557 203.398Z" fill="white"/>
<path d="M204.598 303.924H153.645C142.647 303.924 133.699 313.031 133.699 324.223V339.785C133.699 350.977 142.647 360.083 153.645 360.083H204.598C215.596 360.083 224.544 350.977 224.544 339.785V324.223C224.544 313.031 215.596 303.924 204.598 303.924ZM203.91 339.086H154.333V324.924H203.91V339.086Z" fill="white"/>
</svg>
