<svg width="359" height="411" viewBox="0 0 359 411" fill="none" xmlns="http://www.w3.org/2000/svg">
<path d="M125.998 76.6812L179.679 65.1192L221.798 76.6812L257.31 103.109L271.35 145.228L262.265 180.74L238.315 231.117L216.843 276.539L199.5 283.972H154.903C150.774 283.972 140.698 280.504 133.431 266.629C126.163 252.755 130.403 248.185 133.431 247.634L116.088 222.033C109.481 213.774 95.7716 195.935 93.7896 190.65C91.8075 185.364 89.1097 166.425 88.0085 157.616L105.352 103.109L125.998 76.6812Z" fill="#282828"/>
<rect x="149.948" y="320.31" width="59.4619" height="24.7758" fill="#282828"/>
<path d="M179.261 51.0088C123.004 51.0088 77.2356 96.7774 77.2356 153.034C77.2356 176.085 84.7863 197.852 99.0724 215.976C101.81 219.45 104.758 222.872 107.608 226.18C116.119 236.056 124.156 245.385 127.017 255.878C127.079 256.104 127.617 258.307 127.538 265.807L127.524 266.891C127.438 272.979 127.323 281.315 133.487 287.567C137.708 291.849 143.624 293.931 151.578 293.931H206.755C215.343 293.931 221.517 291.829 225.63 287.507C231.194 281.66 230.821 274.108 230.573 269.11C230.529 268.226 230.483 267.335 230.472 266.447C230.383 258.938 230.944 256.822 230.968 256.733C233.874 246.242 243.289 235.178 251.597 225.419C254.369 222.162 256.987 219.086 259.426 215.994C273.718 197.867 281.271 176.096 281.271 153.036C281.273 96.7788 235.511 51.0088 179.261 51.0088ZM243.289 203.267C241.087 206.056 238.591 208.991 235.948 212.097C226.261 223.479 215.281 236.378 211.164 251.244C210.576 253.362 209.81 257.266 209.924 266.689C209.938 267.833 209.991 268.984 210.049 270.124C210.093 271.024 210.152 272.211 210.146 273.151C209.423 273.268 208.331 273.378 206.755 273.378H151.578C149.83 273.378 148.808 273.193 148.283 273.053C148.011 271.715 148.05 268.933 148.075 267.18L148.091 266.023C148.19 256.544 147.429 252.611 146.848 250.475C142.765 235.492 132.359 223.417 123.18 212.764C120.349 209.479 117.673 206.374 115.215 203.253C103.816 188.789 97.79 171.423 97.79 153.033C97.79 108.108 134.339 71.5591 179.264 71.5591C224.18 71.5591 260.724 108.108 260.724 153.033C260.721 171.432 254.694 188.804 243.289 203.267Z" fill="#282828"/>
<path d="M204.33 303.793H153.377C142.379 303.793 133.431 312.899 133.431 324.091V339.653C133.431 350.845 142.379 359.951 153.377 359.951H204.33C215.327 359.951 224.276 350.845 224.276 339.653V324.091C224.276 312.899 215.327 303.793 204.33 303.793ZM203.642 338.955H154.065V324.792H203.642V338.955Z" fill="#282828"/>
</svg>
