<svg width="235" height="246" viewBox="0 0 235 246" fill="none" xmlns="http://www.w3.org/2000/svg">
<path d="M98.9208 0C93.0262 0 87.9873 4.1647 86.8551 9.9457L82.7451 31.0383C72.6448 34.8558 63.3055 40.1891 55.1046 46.9178L34.8669 39.951C29.2923 38.0322 23.1589 40.3361 20.2054 45.4283L1.65023 77.5717C-1.29092 82.6762 -0.220483 89.1566 4.222 93.0188L20.4458 107.121C19.602 112.303 19.0517 117.579 19.0517 123C19.0517 128.421 19.602 133.697 20.4458 138.88L4.222 152.981C-0.220483 156.843 -1.29092 163.324 1.65023 168.428L20.2054 200.572C23.1466 205.676 29.2923 207.98 34.8669 206.073L55.1046 199.106C63.3028 205.831 72.6494 211.146 82.7451 214.962L86.8551 236.054C87.9873 241.835 93.0262 246 98.9208 246H136.079C141.974 246 147.013 241.835 148.145 236.054L152.255 214.962C162.355 211.144 171.695 205.811 179.895 199.082L200.133 206.049C205.708 207.968 211.841 205.676 214.795 200.572L233.35 168.404C236.291 163.3 235.22 156.843 230.778 152.981L214.554 138.88C215.398 133.697 215.948 128.421 215.948 123C215.948 117.579 215.398 112.303 214.554 107.121L230.778 93.0188C235.22 89.1566 236.291 82.6762 233.35 77.5717L214.795 45.4283C211.853 40.3238 205.708 38.0205 200.133 39.927L179.895 46.8937C171.697 40.1693 162.351 34.854 152.255 31.0383L148.145 9.9457C147.013 4.1647 141.974 0 136.079 0H98.9208ZM117.5 73.8C144.684 73.8 166.724 95.8293 166.724 123C166.724 150.171 144.684 172.2 117.5 172.2C90.316 172.2 68.2759 150.171 68.2759 123C68.2759 95.8293 90.316 73.8 117.5 73.8Z" fill="#FFCC00"/>
</svg>
