<svg width="314" height="245" viewBox="0 0 314 245" fill="none" xmlns="http://www.w3.org/2000/svg">
<path fill-rule="evenodd" clip-rule="evenodd" d="M231.206 167.796C262.63 167.796 288.104 142.322 288.104 110.898C288.104 79.4741 262.63 54 231.206 54C199.782 54 174.308 79.4741 174.308 110.898C174.308 142.322 199.782 167.796 231.206 167.796ZM231.206 167.796C272.043 167.796 306.025 200.713 313.206 244.18H149.206C156.387 200.713 190.369 167.796 231.206 167.796Z" fill="#CDCDCD"/>
<path fill-rule="evenodd" clip-rule="evenodd" d="M105.206 146C145.523 146 178.206 113.317 178.206 73C178.206 32.6832 145.523 0 105.206 0C64.889 0 32.2058 32.6832 32.2058 73C32.2058 113.317 64.889 146 105.206 146ZM105.206 146C52.8119 146 9.21344 188.233 0 244H210.412C201.198 188.233 157.6 146 105.206 146Z" fill="white"/>
</svg>
