<svg width="253" height="1102" viewBox="0 0 253 1102" fill="none" xmlns="http://www.w3.org/2000/svg">
<path d="M98.0798 0.195139C92.6647 -0.890589 87.3947 2.61904 86.309 8.03412C85.2233 13.4492 88.7329 18.7191 94.148 19.8049L98.0798 0.195139ZM0 1101.9L108.947 1063.64L21.3375 988.418L0 1101.9ZM94.148 19.8049C136.393 28.275 166.342 57.5801 187.549 101.284C208.85 145.184 220.743 202.557 226.956 264.511C239.408 388.695 228.783 526.585 228.783 604.994H248.783C248.783 528.978 259.433 387.938 246.856 262.516C240.554 199.667 228.355 139.568 205.542 92.5532C182.634 45.3434 148.445 10.2933 98.0798 0.195139L94.148 19.8049ZM228.783 604.994C228.783 663.688 202.378 742.906 166.333 821.493C130.453 899.717 85.6979 975.89 50.3628 1027.99L66.9149 1039.21C102.81 986.291 148.127 909.156 184.512 829.831C220.73 750.867 248.783 668.292 248.783 604.994H228.783Z" fill="white"/>
</svg>
