<svg width="142" height="213" viewBox="0 0 142 213" fill="none" xmlns="http://www.w3.org/2000/svg">
<path d="M24.1037 133.839C22.0003 132.087 19.8263 130.276 17.7762 128.411C9.91563 121.263 4.08484 112.535 0.575879 102.767L4.89578 98.4975L13.6433 100.587C16.4941 107.479 20.8387 113.659 26.505 118.813C28.3515 120.494 30.3308 122.142 32.4244 123.885L32.4514 123.908L32.453 123.909C39.2741 129.588 47.0058 136.024 51.1035 144.928C51.687 146.197 52.5688 148.567 53.4919 154.479L53.6018 155.2C53.7685 156.295 54.0335 158.03 54.3414 158.836C54.6826 158.868 55.3382 158.877 56.4266 158.696L90.779 152.965C91.76 152.802 92.4284 152.62 92.8666 152.471C92.7744 151.898 92.6192 151.184 92.4994 150.633L92.4917 150.597C92.3375 149.894 92.1847 149.183 92.0573 148.472C91.0079 142.617 91.0793 140.107 91.2253 138.727C92.2445 129.046 97.7393 119.876 102.588 111.785L102.59 111.781C103.913 109.573 105.162 107.486 106.243 105.521C108.987 100.528 110.853 95.2345 111.819 89.7859L118.658 87.6313L124.255 93.8356C122.971 100.035 120.749 106.058 117.612 111.769C116.417 113.942 115.11 116.124 113.726 118.434L113.716 118.449C109.557 125.388 104.844 133.254 104.125 140.087L104.125 140.088C104.118 140.155 103.993 141.538 104.825 146.187C104.918 146.704 105.03 147.221 105.142 147.733L105.164 147.835C105.838 150.921 106.854 155.584 103.997 159.801C101.886 162.92 98.2602 164.869 92.9135 165.761L58.5611 171.492C53.6094 172.318 49.7098 171.635 46.6371 169.408C42.1501 166.156 41.356 160.954 40.7774 157.155L40.6734 156.478C39.944 151.801 39.38 150.485 39.3181 150.351C36.4474 144.116 30.4748 139.142 24.1502 133.877L24.1037 133.839Z" fill="url(#paint0_linear_473_63)"/>
<path d="M96.7503 177L64.5896 177C57.6479 177 52 182.748 52 189.812L52 199.635C52 206.699 57.6479 212.446 64.5896 212.446L96.7503 212.446C103.692 212.446 109.34 206.699 109.34 199.635L109.34 189.812C109.34 182.748 103.692 177 96.7503 177ZM96.3161 199.194L65.0237 199.194L65.0237 190.255L96.3161 190.255L96.3161 199.194Z" fill="url(#paint1_linear_473_63)"/>
<path d="M12.2334 66.8518C11.5533 31.3499 39.8832 1.91337 75.3852 1.23326C110.883 0.553243 140.315 28.8841 140.994 64.3861C141.148 72.4313 139.841 80.2558 137.154 87.6067L132.52 80.6535L125.44 81.7893C127.26 76.3258 128.14 70.5541 128.027 64.6327C127.484 36.2822 103.981 13.6589 75.6353 14.2019C47.2848 14.745 24.6616 38.2519 25.2047 66.6025C25.2805 70.5606 25.7972 74.435 26.7376 78.1791L18.3876 74.8385L13.4921 78.4329C12.732 74.6581 12.3088 70.788 12.2334 66.8518Z" fill="url(#paint2_linear_473_63)"/>
<defs>
<linearGradient id="paint0_linear_473_63" x1="62.0421" y1="96.0617" x2="74.1897" y2="168.885" gradientUnits="userSpaceOnUse">
<stop stop-color="#979797"/>
<stop offset="1" stop-color="#696969"/>
</linearGradient>
<linearGradient id="paint1_linear_473_63" x1="80.6699" y1="177" x2="80.6699" y2="212.446" gradientUnits="userSpaceOnUse">
<stop stop-color="#6E6E6E"/>
<stop offset="1" stop-color="#515151"/>
</linearGradient>
<linearGradient id="paint2_linear_473_63" x1="75.3804" y1="1.23335" x2="78.3172" y2="154.534" gradientUnits="userSpaceOnUse">
<stop stop-color="#C2C2C2"/>
<stop offset="1" stop-color="#696969"/>
</linearGradient>
</defs>
</svg>
